<svg width="512" height="512" viewBox="0 0 512 512" xmlns="http://www.w3.org/2000/svg">
  <defs>
    <linearGradient id="bg" x1="0" y1="0" x2="512" y2="512">
      <stop stop-color="#1c1930"/>
      <stop offset="1" stop-color="#0b0a12"/>
    </linearGradient>
    <linearGradient id="oct" x1="120" y1="100" x2="400" y2="430">
      <stop stop-color="#9b66ff"/>
      <stop offset="1" stop-color="#6d28d9"/>
    </linearGradient>
  </defs>
  <rect width="512" height="512" rx="112" fill="url(#bg)"/>
  <g transform="translate(96,80) scale(5)">
    <path d="M32 6c11 0 19 8 19 19v8c0 3-2 5-4 6-2 1-3 3-3 5 0 4-3 6-6 4-2-1-3-1-5 0-2 1-4 1-6 0-2-1-3-1-5 0-3 2-6 0-6-4 0-2-1-4-3-5-2-1-4-3-4-6v-8C13 14 21 6 32 6Z" fill="url(#oct)"/>
    <circle cx="25" cy="26" r="5" fill="#fff"/>
    <circle cx="39" cy="26" r="5" fill="#fff"/>
    <circle cx="26" cy="27" r="2.4" fill="#1c1930"/>
    <circle cx="40" cy="27" r="2.4" fill="#1c1930"/>
    <path d="M16 44c-4 2-6 6-5 10" stroke="#6d28d9" stroke-width="3" stroke-linecap="round" fill="none"/>
    <path d="M48 44c4 2 6 6 5 10" stroke="#6d28d9" stroke-width="3" stroke-linecap="round" fill="none"/>
    <path d="M32 52c0 4 2 7 6 8" stroke="#6d28d9" stroke-width="3" stroke-linecap="round" fill="none"/>
    <path d="M28 52c0 4-2 7-6 8" stroke="#6d28d9" stroke-width="3" stroke-linecap="round" fill="none"/>
  </g>
</svg>
